<svg width="22" height="22" viewBox="0 0 22 22" fill="none" xmlns="http://www.w3.org/2000/svg">
<path d="M8.67648 6.07313C9.57444 4.65901 10.155 3.34143 10.5021 2.3238C10.7046 1.73047 11.4796 1.48497 11.9312 1.91979C16.4027 6.225 17.883 9.55983 18.184 13.4C18.4096 17.2027 16.5404 20.5865 11.5238 20.5865C6.81396 20.5865 3.33822 17.2994 3.81085 12.0894C4.06897 9.24419 5.10199 7.01821 6.01662 5.57813C6.43209 4.92398 7.34444 4.9137 7.8493 5.5016L8.35887 6.09499C8.44563 6.19602 8.6051 6.18555 8.67648 6.07313Z" fill="url(#paint0_radial_1_82)"/>
<path d="M8.67648 6.07313C9.57444 4.65901 10.155 3.34143 10.5021 2.3238C10.7046 1.73047 11.4796 1.48497 11.9312 1.91979C16.4027 6.225 17.883 9.55983 18.184 13.4C18.4096 17.2027 16.5404 20.5865 11.5238 20.5865C6.81396 20.5865 3.33822 17.2994 3.81085 12.0894C4.06897 9.24419 5.10199 7.01821 6.01662 5.57813C6.43209 4.92398 7.34444 4.9137 7.8493 5.5016L8.35887 6.09499C8.44563 6.19602 8.6051 6.18555 8.67648 6.07313Z" fill="url(#paint1_radial_1_82)"/>
<path d="M8.67648 6.07313C9.57444 4.65901 10.155 3.34143 10.5021 2.3238C10.7046 1.73047 11.4796 1.48497 11.9312 1.91979C16.4027 6.225 17.883 9.55983 18.184 13.4C18.4096 17.2027 16.5404 20.5865 11.5238 20.5865C6.81396 20.5865 3.33822 17.2994 3.81085 12.0894C4.06897 9.24419 5.10199 7.01821 6.01662 5.57813C6.43209 4.92398 7.34444 4.9137 7.8493 5.5016L8.35887 6.09499C8.44563 6.19602 8.6051 6.18555 8.67648 6.07313Z" fill="url(#paint2_radial_1_82)"/>
<path d="M8.67648 6.07313C9.57444 4.65901 10.155 3.34143 10.5021 2.3238C10.7046 1.73047 11.4796 1.48497 11.9312 1.91979C16.4027 6.225 17.883 9.55983 18.184 13.4C18.4096 17.2027 16.5404 20.5865 11.5238 20.5865C6.81396 20.5865 3.33822 17.2994 3.81085 12.0894C4.06897 9.24419 5.10199 7.01821 6.01662 5.57813C6.43209 4.92398 7.34444 4.9137 7.8493 5.5016L8.35887 6.09499C8.44563 6.19602 8.6051 6.18555 8.67648 6.07313Z" fill="url(#paint3_linear_1_82)"/>
<path d="M8.67648 6.07313C9.57444 4.65901 10.155 3.34143 10.5021 2.3238C10.7046 1.73047 11.4796 1.48497 11.9312 1.91979C16.4027 6.225 17.883 9.55983 18.184 13.4C18.4096 17.2027 16.5404 20.5865 11.5238 20.5865C6.81396 20.5865 3.33822 17.2994 3.81085 12.0894C4.06897 9.24419 5.10199 7.01821 6.01662 5.57813C6.43209 4.92398 7.34444 4.9137 7.8493 5.5016L8.35887 6.09499C8.44563 6.19602 8.6051 6.18555 8.67648 6.07313Z" fill="url(#paint4_radial_1_82)"/>
<path d="M8.67648 6.07313C9.57444 4.65901 10.155 3.34143 10.5021 2.3238C10.7046 1.73047 11.4796 1.48497 11.9312 1.91979C16.4027 6.225 17.883 9.55983 18.184 13.4C18.4096 17.2027 16.5404 20.5865 11.5238 20.5865C6.81396 20.5865 3.33822 17.2994 3.81085 12.0894C4.06897 9.24419 5.10199 7.01821 6.01662 5.57813C6.43209 4.92398 7.34444 4.9137 7.8493 5.5016L8.35887 6.09499C8.44563 6.19602 8.6051 6.18555 8.67648 6.07313Z" fill="url(#paint5_radial_1_82)"/>
<path d="M8.67648 6.07313C9.57444 4.65901 10.155 3.34143 10.5021 2.3238C10.7046 1.73047 11.4796 1.48497 11.9312 1.91979C16.4027 6.225 17.883 9.55983 18.184 13.4C18.4096 17.2027 16.5404 20.5865 11.5238 20.5865C6.81396 20.5865 3.33822 17.2994 3.81085 12.0894C4.06897 9.24419 5.10199 7.01821 6.01662 5.57813C6.43209 4.92398 7.34444 4.9137 7.8493 5.5016L8.35887 6.09499C8.44563 6.19602 8.6051 6.18555 8.67648 6.07313Z" fill="url(#paint6_radial_1_82)"/>
<path d="M8.67648 6.07313C9.57444 4.65901 10.155 3.34143 10.5021 2.3238C10.7046 1.73047 11.4796 1.48497 11.9312 1.91979C16.4027 6.225 17.883 9.55983 18.184 13.4C18.4096 17.2027 16.5404 20.5865 11.5238 20.5865C6.81396 20.5865 3.33822 17.2994 3.81085 12.0894C4.06897 9.24419 5.10199 7.01821 6.01662 5.57813C6.43209 4.92398 7.34444 4.9137 7.8493 5.5016L8.35887 6.09499C8.44563 6.19602 8.6051 6.18555 8.67648 6.07313Z" fill="url(#paint7_radial_1_82)"/>
<path d="M8.67648 6.07313C9.57444 4.65901 10.155 3.34143 10.5021 2.3238C10.7046 1.73047 11.4796 1.48497 11.9312 1.91979C16.4027 6.225 17.883 9.55983 18.184 13.4C18.4096 17.2027 16.5404 20.5865 11.5238 20.5865C6.81396 20.5865 3.33822 17.2994 3.81085 12.0894C4.06897 9.24419 5.10199 7.01821 6.01662 5.57813C6.43209 4.92398 7.34444 4.9137 7.8493 5.5016L8.35887 6.09499C8.44563 6.19602 8.6051 6.18555 8.67648 6.07313Z" fill="url(#paint8_radial_1_82)"/>
<path d="M8.67648 6.07313C9.57444 4.65901 10.155 3.34143 10.5021 2.3238C10.7046 1.73047 11.4796 1.48497 11.9312 1.91979C16.4027 6.225 17.883 9.55983 18.184 13.4C18.4096 17.2027 16.5404 20.5865 11.5238 20.5865C6.81396 20.5865 3.33822 17.2994 3.81085 12.0894C4.06897 9.24419 5.10199 7.01821 6.01662 5.57813C6.43209 4.92398 7.34444 4.9137 7.8493 5.5016L8.35887 6.09499C8.44563 6.19602 8.6051 6.18555 8.67648 6.07313Z" fill="url(#paint9_radial_1_82)"/>
<path d="M8.67648 6.07313C9.57444 4.65901 10.155 3.34143 10.5021 2.3238C10.7046 1.73047 11.4796 1.48497 11.9312 1.91979C16.4027 6.225 17.883 9.55983 18.184 13.4C18.4096 17.2027 16.5404 20.5865 11.5238 20.5865C6.81396 20.5865 3.33822 17.2994 3.81085 12.0894C4.06897 9.24419 5.10199 7.01821 6.01662 5.57813C6.43209 4.92398 7.34444 4.9137 7.8493 5.5016L8.35887 6.09499C8.44563 6.19602 8.6051 6.18555 8.67648 6.07313Z" fill="url(#paint10_radial_1_82)"/>
<path d="M8.67648 6.07313C9.57444 4.65901 10.155 3.34143 10.5021 2.3238C10.7046 1.73047 11.4796 1.48497 11.9312 1.91979C16.4027 6.225 17.883 9.55983 18.184 13.4C18.4096 17.2027 16.5404 20.5865 11.5238 20.5865C6.81396 20.5865 3.33822 17.2994 3.81085 12.0894C4.06897 9.24419 5.10199 7.01821 6.01662 5.57813C6.43209 4.92398 7.34444 4.9137 7.8493 5.5016L8.35887 6.09499C8.44563 6.19602 8.6051 6.18555 8.67648 6.07313Z" fill="url(#paint11_radial_1_82)"/>
<path d="M8.67648 6.07313C9.57444 4.65901 10.155 3.34143 10.5021 2.3238C10.7046 1.73047 11.4796 1.48497 11.9312 1.91979C16.4027 6.225 17.883 9.55983 18.184 13.4C18.4096 17.2027 16.5404 20.5865 11.5238 20.5865C6.81396 20.5865 3.33822 17.2994 3.81085 12.0894C4.06897 9.24419 5.10199 7.01821 6.01662 5.57813C6.43209 4.92398 7.34444 4.9137 7.8493 5.5016L8.35887 6.09499C8.44563 6.19602 8.6051 6.18555 8.67648 6.07313Z" fill="url(#paint12_radial_1_82)"/>
<path d="M8.67648 6.07313C9.57444 4.65901 10.155 3.34143 10.5021 2.3238C10.7046 1.73047 11.4796 1.48497 11.9312 1.91979C16.4027 6.225 17.883 9.55983 18.184 13.4C18.4096 17.2027 16.5404 20.5865 11.5238 20.5865C6.81396 20.5865 3.33822 17.2994 3.81085 12.0894C4.06897 9.24419 5.10199 7.01821 6.01662 5.57813C6.43209 4.92398 7.34444 4.9137 7.8493 5.5016L8.35887 6.09499C8.44563 6.19602 8.6051 6.18555 8.67648 6.07313Z" fill="url(#paint13_radial_1_82)" fill-opacity="0.2"/>
<path d="M8.67648 6.07313C9.57444 4.65901 10.155 3.34143 10.5021 2.3238C10.7046 1.73047 11.4796 1.48497 11.9312 1.91979C16.4027 6.225 17.883 9.55983 18.184 13.4C18.4096 17.2027 16.5404 20.5865 11.5238 20.5865C6.81396 20.5865 3.33822 17.2994 3.81085 12.0894C4.06897 9.24419 5.10199 7.01821 6.01662 5.57813C6.43209 4.92398 7.34444 4.9137 7.8493 5.5016L8.35887 6.09499C8.44563 6.19602 8.6051 6.18555 8.67648 6.07313Z" fill="url(#paint14_radial_1_82)"/>
<path d="M8.67648 6.07313C9.57444 4.65901 10.155 3.34143 10.5021 2.3238C10.7046 1.73047 11.4796 1.48497 11.9312 1.91979C16.4027 6.225 17.883 9.55983 18.184 13.4C18.4096 17.2027 16.5404 20.5865 11.5238 20.5865C6.81396 20.5865 3.33822 17.2994 3.81085 12.0894C4.06897 9.24419 5.10199 7.01821 6.01662 5.57813C6.43209 4.92398 7.34444 4.9137 7.8493 5.5016L8.35887 6.09499C8.44563 6.19602 8.6051 6.18555 8.67648 6.07313Z" fill="url(#paint15_radial_1_82)"/>
<path d="M8.67648 6.07313C9.57444 4.65901 10.155 3.34143 10.5021 2.3238C10.7046 1.73047 11.4796 1.48497 11.9312 1.91979C16.4027 6.225 17.883 9.55983 18.184 13.4C18.4096 17.2027 16.5404 20.5865 11.5238 20.5865C6.81396 20.5865 3.33822 17.2994 3.81085 12.0894C4.06897 9.24419 5.10199 7.01821 6.01662 5.57813C6.43209 4.92398 7.34444 4.9137 7.8493 5.5016L8.35887 6.09499C8.44563 6.19602 8.6051 6.18555 8.67648 6.07313Z" fill="url(#paint16_radial_1_82)"/>
<path d="M8.67648 6.07313C9.57444 4.65901 10.155 3.34143 10.5021 2.3238C10.7046 1.73047 11.4796 1.48497 11.9312 1.91979C16.4027 6.225 17.883 9.55983 18.184 13.4C18.4096 17.2027 16.5404 20.5865 11.5238 20.5865C6.81396 20.5865 3.33822 17.2994 3.81085 12.0894C4.06897 9.24419 5.10199 7.01821 6.01662 5.57813C6.43209 4.92398 7.34444 4.9137 7.8493 5.5016L8.35887 6.09499C8.44563 6.19602 8.6051 6.18555 8.67648 6.07313Z" fill="url(#paint17_radial_1_82)"/>
<path d="M8.67648 6.07313C9.57444 4.65901 10.155 3.34143 10.5021 2.3238C10.7046 1.73047 11.4796 1.48497 11.9312 1.91979C16.4027 6.225 17.883 9.55983 18.184 13.4C18.4096 17.2027 16.5404 20.5865 11.5238 20.5865C6.81396 20.5865 3.33822 17.2994 3.81085 12.0894C4.06897 9.24419 5.10199 7.01821 6.01662 5.57813C6.43209 4.92398 7.34444 4.9137 7.8493 5.5016L8.35887 6.09499C8.44563 6.19602 8.6051 6.18555 8.67648 6.07313Z" fill="url(#paint18_radial_1_82)" fill-opacity="0.3"/>
<path d="M8.67648 6.07313C9.57444 4.65901 10.155 3.34143 10.5021 2.3238C10.7046 1.73047 11.4796 1.48497 11.9312 1.91979C16.4027 6.225 17.883 9.55983 18.184 13.4C18.4096 17.2027 16.5404 20.5865 11.5238 20.5865C6.81396 20.5865 3.33822 17.2994 3.81085 12.0894C4.06897 9.24419 5.10199 7.01821 6.01662 5.57813C6.43209 4.92398 7.34444 4.9137 7.8493 5.5016L8.35887 6.09499C8.44563 6.19602 8.6051 6.18555 8.67648 6.07313Z" fill="url(#paint19_radial_1_82)" fill-opacity="0.4"/>
<path d="M8.67648 6.07313C9.57444 4.65901 10.155 3.34143 10.5021 2.3238C10.7046 1.73047 11.4796 1.48497 11.9312 1.91979C16.4027 6.225 17.883 9.55983 18.184 13.4C18.4096 17.2027 16.5404 20.5865 11.5238 20.5865C6.81396 20.5865 3.33822 17.2994 3.81085 12.0894C4.06897 9.24419 5.10199 7.01821 6.01662 5.57813C6.43209 4.92398 7.34444 4.9137 7.8493 5.5016L8.35887 6.09499C8.44563 6.19602 8.6051 6.18555 8.67648 6.07313Z" fill="url(#paint20_radial_1_82)"/>
<path d="M8.67648 6.07313C9.57444 4.65901 10.155 3.34143 10.5021 2.3238C10.7046 1.73047 11.4796 1.48497 11.9312 1.91979C16.4027 6.225 17.883 9.55983 18.184 13.4C18.4096 17.2027 16.5404 20.5865 11.5238 20.5865C6.81396 20.5865 3.33822 17.2994 3.81085 12.0894C4.06897 9.24419 5.10199 7.01821 6.01662 5.57813C6.43209 4.92398 7.34444 4.9137 7.8493 5.5016L8.35887 6.09499C8.44563 6.19602 8.6051 6.18555 8.67648 6.07313Z" fill="url(#paint21_radial_1_82)"/>
<path d="M8.67648 6.07313C9.57444 4.65901 10.155 3.34143 10.5021 2.3238C10.7046 1.73047 11.4796 1.48497 11.9312 1.91979C16.4027 6.225 17.883 9.55983 18.184 13.4C18.4096 17.2027 16.5404 20.5865 11.5238 20.5865C6.81396 20.5865 3.33822 17.2994 3.81085 12.0894C4.06897 9.24419 5.10199 7.01821 6.01662 5.57813C6.43209 4.92398 7.34444 4.9137 7.8493 5.5016L8.35887 6.09499C8.44563 6.19602 8.6051 6.18555 8.67648 6.07313Z" fill="url(#paint22_radial_1_82)"/>
<path d="M8.67648 6.07313C9.57444 4.65901 10.155 3.34143 10.5021 2.3238C10.7046 1.73047 11.4796 1.48497 11.9312 1.91979C16.4027 6.225 17.883 9.55983 18.184 13.4C18.4096 17.2027 16.5404 20.5865 11.5238 20.5865C6.81396 20.5865 3.33822 17.2994 3.81085 12.0894C4.06897 9.24419 5.10199 7.01821 6.01662 5.57813C6.43209 4.92398 7.34444 4.9137 7.8493 5.5016L8.35887 6.09499C8.44563 6.19602 8.6051 6.18555 8.67648 6.07313Z" fill="url(#paint23_radial_1_82)" fill-opacity="0.8"/>
<path d="M8.67648 6.07313C9.57444 4.65901 10.155 3.34143 10.5021 2.3238C10.7046 1.73047 11.4796 1.48497 11.9312 1.91979C16.4027 6.225 17.883 9.55983 18.184 13.4C18.4096 17.2027 16.5404 20.5865 11.5238 20.5865C6.81396 20.5865 3.33822 17.2994 3.81085 12.0894C4.06897 9.24419 5.10199 7.01821 6.01662 5.57813C6.43209 4.92398 7.34444 4.9137 7.8493 5.5016L8.35887 6.09499C8.44563 6.19602 8.6051 6.18555 8.67648 6.07313Z" fill="url(#paint24_radial_1_82)" fill-opacity="0.2"/>
<path d="M8.67648 6.07313C9.57444 4.65901 10.155 3.34143 10.5021 2.3238C10.7046 1.73047 11.4796 1.48497 11.9312 1.91979C16.4027 6.225 17.883 9.55983 18.184 13.4C18.4096 17.2027 16.5404 20.5865 11.5238 20.5865C6.81396 20.5865 3.33822 17.2994 3.81085 12.0894C4.06897 9.24419 5.10199 7.01821 6.01662 5.57813C6.43209 4.92398 7.34444 4.9137 7.8493 5.5016L8.35887 6.09499C8.44563 6.19602 8.6051 6.18555 8.67648 6.07313Z" fill="url(#paint25_radial_1_82)" fill-opacity="0.2"/>
<path d="M8.67648 6.07313C9.57444 4.65901 10.155 3.34143 10.5021 2.3238C10.7046 1.73047 11.4796 1.48497 11.9312 1.91979C16.4027 6.225 17.883 9.55983 18.184 13.4C18.4096 17.2027 16.5404 20.5865 11.5238 20.5865C6.81396 20.5865 3.33822 17.2994 3.81085 12.0894C4.06897 9.24419 5.10199 7.01821 6.01662 5.57813C6.43209 4.92398 7.34444 4.9137 7.8493 5.5016L8.35887 6.09499C8.44563 6.19602 8.6051 6.18555 8.67648 6.07313Z" fill="url(#paint26_radial_1_82)"/>
<path d="M8.67648 6.07313C9.57444 4.65901 10.155 3.34143 10.5021 2.3238C10.7046 1.73047 11.4796 1.48497 11.9312 1.91979C16.4027 6.225 17.883 9.55983 18.184 13.4C18.4096 17.2027 16.5404 20.5865 11.5238 20.5865C6.81396 20.5865 3.33822 17.2994 3.81085 12.0894C4.06897 9.24419 5.10199 7.01821 6.01662 5.57813C6.43209 4.92398 7.34444 4.9137 7.8493 5.5016L8.35887 6.09499C8.44563 6.19602 8.6051 6.18555 8.67648 6.07313Z" fill="url(#paint27_radial_1_82)"/>
<path d="M8.67648 6.07313C9.57444 4.65901 10.155 3.34143 10.5021 2.3238C10.7046 1.73047 11.4796 1.48497 11.9312 1.91979C16.4027 6.225 17.883 9.55983 18.184 13.4C18.4096 17.2027 16.5404 20.5865 11.5238 20.5865C6.81396 20.5865 3.33822 17.2994 3.81085 12.0894C4.06897 9.24419 5.10199 7.01821 6.01662 5.57813C6.43209 4.92398 7.34444 4.9137 7.8493 5.5016L8.35887 6.09499C8.44563 6.19602 8.6051 6.18555 8.67648 6.07313Z" fill="url(#paint28_radial_1_82)"/>
<path d="M8.67648 6.07313C9.57444 4.65901 10.155 3.34143 10.5021 2.3238C10.7046 1.73047 11.4796 1.48497 11.9312 1.91979C16.4027 6.225 17.883 9.55983 18.184 13.4C18.4096 17.2027 16.5404 20.5865 11.5238 20.5865C6.81396 20.5865 3.33822 17.2994 3.81085 12.0894C4.06897 9.24419 5.10199 7.01821 6.01662 5.57813C6.43209 4.92398 7.34444 4.9137 7.8493 5.5016L8.35887 6.09499C8.44563 6.19602 8.6051 6.18555 8.67648 6.07313Z" fill="url(#paint29_radial_1_82)"/>
<path d="M6.99741 13.6654C7.82922 11.6859 9.47384 9.51035 10.6979 8.1859C11.195 7.64809 12.0202 7.63317 12.546 8.14294C14.697 10.2285 15.3792 12.1413 15.9619 14.3529C16.5943 16.7534 15.9619 20.6212 11.2033 20.6212C7.10527 20.6212 5.68567 16.787 6.99741 13.6654Z" fill="url(#paint30_radial_1_82)"/>
<path d="M6.99741 13.6654C7.82922 11.6859 9.47384 9.51035 10.6979 8.1859C11.195 7.64809 12.0202 7.63317 12.546 8.14294C14.697 10.2285 15.3792 12.1413 15.9619 14.3529C16.5943 16.7534 15.9619 20.6212 11.2033 20.6212C7.10527 20.6212 5.68567 16.787 6.99741 13.6654Z" fill="url(#paint31_radial_1_82)"/>
<path d="M6.99741 13.6654C7.82922 11.6859 9.47384 9.51035 10.6979 8.1859C11.195 7.64809 12.0202 7.63317 12.546 8.14294C14.697 10.2285 15.3792 12.1413 15.9619 14.3529C16.5943 16.7534 15.9619 20.6212 11.2033 20.6212C7.10527 20.6212 5.68567 16.787 6.99741 13.6654Z" fill="url(#paint32_radial_1_82)"/>
<path d="M6.99741 13.6654C7.82922 11.6859 9.47384 9.51035 10.6979 8.1859C11.195 7.64809 12.0202 7.63317 12.546 8.14294C14.697 10.2285 15.3792 12.1413 15.9619 14.3529C16.5943 16.7534 15.9619 20.6212 11.2033 20.6212C7.10527 20.6212 5.68567 16.787 6.99741 13.6654Z" fill="url(#paint33_radial_1_82)"/>
<path d="M6.99741 13.6654C7.82922 11.6859 9.47384 9.51035 10.6979 8.1859C11.195 7.64809 12.0202 7.63317 12.546 8.14294C14.697 10.2285 15.3792 12.1413 15.9619 14.3529C16.5943 16.7534 15.9619 20.6212 11.2033 20.6212C7.10527 20.6212 5.68567 16.787 6.99741 13.6654Z" fill="url(#paint34_linear_1_82)"/>
<path d="M6.99741 13.6654C7.82922 11.6859 9.47384 9.51035 10.6979 8.1859C11.195 7.64809 12.0202 7.63317 12.546 8.14294C14.697 10.2285 15.3792 12.1413 15.9619 14.3529C16.5943 16.7534 15.9619 20.6212 11.2033 20.6212C7.10527 20.6212 5.68567 16.787 6.99741 13.6654Z" fill="url(#paint35_radial_1_82)"/>
<path d="M6.99741 13.6654C7.82922 11.6859 9.47384 9.51035 10.6979 8.1859C11.195 7.64809 12.0202 7.63317 12.546 8.14294C14.697 10.2285 15.3792 12.1413 15.9619 14.3529C16.5943 16.7534 15.9619 20.6212 11.2033 20.6212C7.10527 20.6212 5.68567 16.787 6.99741 13.6654Z" fill="url(#paint36_radial_1_82)"/>
<path d="M6.99741 13.6654C7.82922 11.6859 9.47384 9.51035 10.6979 8.1859C11.195 7.64809 12.0202 7.63317 12.546 8.14294C14.697 10.2285 15.3792 12.1413 15.9619 14.3529C16.5943 16.7534 15.9619 20.6212 11.2033 20.6212C7.10527 20.6212 5.68567 16.787 6.99741 13.6654Z" fill="url(#paint37_radial_1_82)" fill-opacity="0.7"/>
<defs>
<radialGradient id="paint0_radial_1_82" cx="0" cy="0" r="1" gradientUnits="userSpaceOnUse" gradientTransform="translate(16.5016 13.5575) rotate(-179.474) scale(11.7554 17.7279)">
<stop stop-color="#FF953D"/>
<stop offset="1" stop-color="#FF5141"/>
</radialGradient>
<radialGradient id="paint1_radial_1_82" cx="0" cy="0" r="1" gradientUnits="userSpaceOnUse" gradientTransform="translate(7.13114 10.7628) rotate(-157.937) scale(7.11158 12.2715)">
<stop stop-color="#CE5327"/>
<stop offset="1" stop-color="#CE5327" stop-opacity="0"/>
</radialGradient>
<radialGradient id="paint2_radial_1_82" cx="0" cy="0" r="1" gradientUnits="userSpaceOnUse" gradientTransform="translate(5.42315 13.7206) rotate(15.4786) scale(1.44595 5.26858)">
<stop stop-color="#F38758"/>
<stop offset="0.363071" stop-color="#F38758" stop-opacity="0.703001"/>
<stop offset="0.71349" stop-color="#F38758" stop-opacity="0.210142"/>
<stop offset="1" stop-color="#F38758" stop-opacity="0"/>
</radialGradient>
<linearGradient id="paint3_linear_1_82" x1="12.6063" y1="20.5865" x2="12.6063" y2="17.0813" gradientUnits="userSpaceOnUse">
<stop stop-color="#FF7583"/>
<stop offset="1" stop-color="#FF7583" stop-opacity="0"/>
</linearGradient>
<radialGradient id="paint4_radial_1_82" cx="0" cy="0" r="1" gradientUnits="userSpaceOnUse" gradientTransform="translate(3.40814 9.89409) rotate(24.0149) scale(2.13445 17.6681)">
<stop stop-color="#FFAA7B"/>
<stop offset="0.845295" stop-color="#FFAA7B" stop-opacity="0.0923529"/>
<stop offset="1" stop-color="#FFAA7B" stop-opacity="0"/>
</radialGradient>
<radialGradient id="paint5_radial_1_82" cx="0" cy="0" r="1" gradientUnits="userSpaceOnUse" gradientTransform="translate(6.40093 4.29754) rotate(77.3196) scale(2.64024 3.29441)">
<stop stop-color="#FF5E47"/>
<stop offset="1" stop-color="#FF5E47" stop-opacity="0"/>
</radialGradient>
<radialGradient id="paint6_radial_1_82" cx="0" cy="0" r="1" gradientUnits="userSpaceOnUse" gradientTransform="translate(11.295 0.939025) rotate(87.8819) scale(6.96946 6.45096)">
<stop stop-color="#FF2F3C"/>
<stop offset="1" stop-color="#FF2F3C" stop-opacity="0"/>
</radialGradient>
<radialGradient id="paint7_radial_1_82" cx="0" cy="0" r="1" gradientUnits="userSpaceOnUse" gradientTransform="translate(8.30501 6.02564) rotate(152.832) scale(0.856648 0.364149)">
<stop stop-color="#FFA682"/>
<stop offset="0.686162" stop-color="#FFA682" stop-opacity="0.266248"/>
<stop offset="0.821066" stop-color="#FFA682" stop-opacity="0.117186"/>
<stop offset="1" stop-color="#FFA682" stop-opacity="0"/>
</radialGradient>
<radialGradient id="paint8_radial_1_82" cx="0" cy="0" r="1" gradientUnits="userSpaceOnUse" gradientTransform="translate(8.20204 6.02216) rotate(114.808) scale(2.6625 0.263655)">
<stop stop-color="#FFA682"/>
<stop offset="0.701678" stop-color="#FFA682" stop-opacity="0.199672"/>
<stop offset="1" stop-color="#FFA682" stop-opacity="0"/>
</radialGradient>
<radialGradient id="paint9_radial_1_82" cx="0" cy="0" r="1" gradientUnits="userSpaceOnUse" gradientTransform="translate(5.9308 6.88301) rotate(20.9596) scale(0.614275 2.91349)">
<stop stop-color="#FF815B"/>
<stop offset="0.24804" stop-color="#FF815B" stop-opacity="0.869521"/>
<stop offset="0.815487" stop-color="#FF815B" stop-opacity="0.150116"/>
<stop offset="1" stop-color="#FF815B" stop-opacity="0"/>
</radialGradient>
<radialGradient id="paint10_radial_1_82" cx="0" cy="0" r="1" gradientUnits="userSpaceOnUse" gradientTransform="translate(6.39932 6.00164) rotate(16.4224) scale(0.753887 2.49338)">
<stop stop-color="#FF815B"/>
<stop offset="0.24804" stop-color="#FF815B" stop-opacity="0.869521"/>
<stop offset="0.822875" stop-color="#FF815B" stop-opacity="0.150116"/>
<stop offset="1" stop-color="#FF815B" stop-opacity="0"/>
</radialGradient>
<radialGradient id="paint11_radial_1_82" cx="0" cy="0" r="1" gradientUnits="userSpaceOnUse" gradientTransform="translate(7.3307 4.65789) rotate(99.2111) scale(0.751086 2.99272)">
<stop stop-color="#FF2F3C"/>
<stop offset="0.739036" stop-color="#FF2F3C" stop-opacity="0.119038"/>
<stop offset="1" stop-color="#FF2F3C" stop-opacity="0"/>
</radialGradient>
<radialGradient id="paint12_radial_1_82" cx="0" cy="0" r="1" gradientUnits="userSpaceOnUse" gradientTransform="translate(7.9589 5.57501) rotate(105.173) scale(4.00956 1.05615)">
<stop stop-color="#FF2F3C" stop-opacity="0.72"/>
<stop offset="0.739036" stop-color="#FF2F3C" stop-opacity="0.119038"/>
<stop offset="1" stop-color="#FF2F3C" stop-opacity="0"/>
</radialGradient>
<radialGradient id="paint13_radial_1_82" cx="0" cy="0" r="1" gradientUnits="userSpaceOnUse" gradientTransform="translate(8.12114 9.10177) rotate(31.1593) scale(1.908 8.63321)">
<stop stop-color="#CA0B4A"/>
<stop offset="0.680964" stop-color="#CA0B4A" stop-opacity="0.54"/>
<stop offset="1" stop-color="#CA0B4A" stop-opacity="0"/>
</radialGradient>
<radialGradient id="paint14_radial_1_82" cx="0" cy="0" r="1" gradientUnits="userSpaceOnUse" gradientTransform="translate(9.68282 4.42969) rotate(23.7601) scale(1.5511 5.65171)">
<stop stop-color="#F38758"/>
<stop offset="0.363071" stop-color="#F38758" stop-opacity="0.703001"/>
<stop offset="0.71349" stop-color="#F38758" stop-opacity="0.210142"/>
<stop offset="1" stop-color="#F38758" stop-opacity="0"/>
</radialGradient>
<radialGradient id="paint15_radial_1_82" cx="0" cy="0" r="1" gradientUnits="userSpaceOnUse" gradientTransform="translate(8.43468 7.43326) rotate(28.8359) scale(1.14884 4.186)">
<stop stop-color="#F38758" stop-opacity="0.86"/>
<stop offset="0.262244" stop-color="#F38758" stop-opacity="0.703001"/>
<stop offset="0.675284" stop-color="#F38758" stop-opacity="0.210142"/>
<stop offset="0.861713" stop-color="#F38758" stop-opacity="0.0623553"/>
<stop offset="1" stop-color="#F38758" stop-opacity="0"/>
</radialGradient>
<radialGradient id="paint16_radial_1_82" cx="0" cy="0" r="1" gradientUnits="userSpaceOnUse" gradientTransform="translate(6.64365 10.6922) rotate(24.6769) scale(1.69242 6.16665)">
<stop stop-color="#F38758"/>
<stop offset="0.363071" stop-color="#F38758" stop-opacity="0.703001"/>
<stop offset="0.71349" stop-color="#F38758" stop-opacity="0.210142"/>
<stop offset="1" stop-color="#F38758" stop-opacity="0"/>
</radialGradient>
<radialGradient id="paint17_radial_1_82" cx="0" cy="0" r="1" gradientUnits="userSpaceOnUse" gradientTransform="translate(8.53332 15.1804) rotate(-160.017) scale(3.99793 8.14753)">
<stop stop-color="#CE5327"/>
<stop offset="0.844833" stop-color="#CE5327" stop-opacity="0.434204"/>
<stop offset="0.945717" stop-color="#CE5327" stop-opacity="0.12821"/>
<stop offset="1" stop-color="#CE5327" stop-opacity="0"/>
</radialGradient>
<radialGradient id="paint18_radial_1_82" cx="0" cy="0" r="1" gradientUnits="userSpaceOnUse" gradientTransform="translate(11.2428 4.02365) rotate(-176.122) scale(0.802267 3.20719)">
<stop stop-color="#CE5327" stop-opacity="0.65"/>
<stop offset="0.481357" stop-color="#CE5327" stop-opacity="0.434204"/>
<stop offset="0.738276" stop-color="#CE5327" stop-opacity="0.12821"/>
<stop offset="1" stop-color="#CE5327" stop-opacity="0"/>
</radialGradient>
<radialGradient id="paint19_radial_1_82" cx="0" cy="0" r="1" gradientUnits="userSpaceOnUse" gradientTransform="translate(10.9229 5.48149) rotate(-164.148) scale(0.820415 3.27975)">
<stop stop-color="#CE5327" stop-opacity="0.65"/>
<stop offset="0.481357" stop-color="#CE5327" stop-opacity="0.434204"/>
<stop offset="0.738276" stop-color="#CE5327" stop-opacity="0.12821"/>
<stop offset="1" stop-color="#CE5327" stop-opacity="0"/>
</radialGradient>
<radialGradient id="paint20_radial_1_82" cx="0" cy="0" r="1" gradientUnits="userSpaceOnUse" gradientTransform="translate(5.95641 9.42925) rotate(-154.011) scale(0.50596 4.26517)">
<stop stop-color="#CE5327" stop-opacity="0.87"/>
<stop offset="0.493785" stop-color="#CE5327" stop-opacity="0.53"/>
<stop offset="0.852631" stop-color="#CE5327" stop-opacity="0.123929"/>
<stop offset="1" stop-color="#CE5327" stop-opacity="0"/>
</radialGradient>
<radialGradient id="paint21_radial_1_82" cx="0" cy="0" r="1" gradientUnits="userSpaceOnUse" gradientTransform="translate(8.04812 7.04145) rotate(-145.909) scale(0.214772 1.33)">
<stop stop-color="#FF5E47"/>
<stop offset="1" stop-color="#FF5E47" stop-opacity="0"/>
</radialGradient>
<radialGradient id="paint22_radial_1_82" cx="0" cy="0" r="1" gradientUnits="userSpaceOnUse" gradientTransform="translate(5.36667 6.10245) rotate(29.1817) scale(0.927463 5.74341)">
<stop offset="0.25679" stop-color="#FF5E47"/>
<stop offset="0.779632" stop-color="#FF5E47" stop-opacity="0.216117"/>
<stop offset="1" stop-color="#FF5E47" stop-opacity="0"/>
</radialGradient>
<radialGradient id="paint23_radial_1_82" cx="0" cy="0" r="1" gradientUnits="userSpaceOnUse" gradientTransform="translate(8.42243 6.29852) rotate(-155.855) scale(0.29782 1.46233)">
<stop stop-color="#FF2F3C"/>
<stop offset="0.361378" stop-color="#FF2F3C" stop-opacity="0.44772"/>
<stop offset="0.739036" stop-color="#FF2F3C" stop-opacity="0.119038"/>
<stop offset="1" stop-color="#FF2F3C" stop-opacity="0"/>
</radialGradient>
<radialGradient id="paint24_radial_1_82" cx="0" cy="0" r="1" gradientUnits="userSpaceOnUse" gradientTransform="translate(11.2905 4.04603) rotate(-177.99) scale(1.23483 6.52224)">
<stop stop-color="#CA0B4A"/>
<stop offset="0.680964" stop-color="#CA0B4A" stop-opacity="0.183465"/>
<stop offset="1" stop-color="#CA0B4A" stop-opacity="0"/>
</radialGradient>
<radialGradient id="paint25_radial_1_82" cx="0" cy="0" r="1" gradientUnits="userSpaceOnUse" gradientTransform="translate(11.3163 2.28319) rotate(-180) scale(0.654954 3.4594)">
<stop stop-color="#CA0B4A"/>
<stop offset="0.680964" stop-color="#CA0B4A" stop-opacity="0.183465"/>
<stop offset="1" stop-color="#CA0B4A" stop-opacity="0"/>
</radialGradient>
<radialGradient id="paint26_radial_1_82" cx="0" cy="0" r="1" gradientUnits="userSpaceOnUse" gradientTransform="translate(5.3754 12.3941) rotate(22.249) scale(0.465173 2.92359)">
<stop stop-color="#F38758"/>
<stop offset="0.277249" stop-color="#F38758" stop-opacity="0.771452"/>
<stop offset="0.585568" stop-color="#F38758" stop-opacity="0.288453"/>
<stop offset="1" stop-color="#F38758" stop-opacity="0"/>
</radialGradient>
<radialGradient id="paint27_radial_1_82" cx="0" cy="0" r="1" gradientUnits="userSpaceOnUse" gradientTransform="translate(6.35745 10.5925) rotate(29.7449) scale(0.417815 2.62595)">
<stop stop-color="#F38758"/>
<stop offset="0.277249" stop-color="#F38758" stop-opacity="0.771452"/>
<stop offset="0.585568" stop-color="#F38758" stop-opacity="0.288453"/>
<stop offset="1" stop-color="#F38758" stop-opacity="0"/>
</radialGradient>
<radialGradient id="paint28_radial_1_82" cx="0" cy="0" r="1" gradientUnits="userSpaceOnUse" gradientTransform="translate(7.41987 8.95873) rotate(37.4054) scale(0.382608 2.40467)">
<stop stop-color="#F38758"/>
<stop offset="0.277249" stop-color="#F38758" stop-opacity="0.771452"/>
<stop offset="0.585568" stop-color="#F38758" stop-opacity="0.288453"/>
<stop offset="1" stop-color="#F38758" stop-opacity="0"/>
</radialGradient>
<radialGradient id="paint29_radial_1_82" cx="0" cy="0" r="1" gradientUnits="userSpaceOnUse" gradientTransform="translate(8.71617 11.8614) rotate(-151.033) scale(2.92847 6.37208)">
<stop stop-color="#CE5327"/>
<stop offset="0.638398" stop-color="#CE5327" stop-opacity="0.417024"/>
<stop offset="0.913732" stop-color="#CE5327" stop-opacity="0.123929"/>
<stop offset="1" stop-color="#CE5327" stop-opacity="0"/>
</radialGradient>
<radialGradient id="paint30_radial_1_82" cx="0" cy="0" r="1" gradientUnits="userSpaceOnUse" gradientTransform="translate(14.5781 16.7586) rotate(-168.558) scale(6.89501 8.58624)">
<stop stop-color="#FFDA2F"/>
<stop offset="0.352487" stop-color="#FFC634"/>
<stop offset="1" stop-color="#FF8E41"/>
</radialGradient>
<radialGradient id="paint31_radial_1_82" cx="0" cy="0" r="1" gradientUnits="userSpaceOnUse" gradientTransform="translate(13.5637 15.4894) rotate(-174.878) scale(7.06776 17.3049)">
<stop offset="0.627719" stop-color="#D7812D" stop-opacity="0"/>
<stop offset="0.728983" stop-color="#D7812D" stop-opacity="0.137125"/>
<stop offset="0.855913" stop-color="#D7812D" stop-opacity="0.404199"/>
<stop offset="1" stop-color="#D7812D"/>
</radialGradient>
<radialGradient id="paint32_radial_1_82" cx="0" cy="0" r="1" gradientUnits="userSpaceOnUse" gradientTransform="translate(18.4248 19.6077) rotate(-135.822) scale(13.8003 16.2732)">
<stop stop-color="#D7812D" stop-opacity="0"/>
<stop offset="0.688904" stop-color="#D7812D" stop-opacity="0"/>
<stop offset="0.767023" stop-color="#D7812D" stop-opacity="0.103983"/>
<stop offset="0.837368" stop-color="#D7812D" stop-opacity="0.404199"/>
<stop offset="0.951078" stop-color="#D7812D"/>
</radialGradient>
<radialGradient id="paint33_radial_1_82" cx="0" cy="0" r="1" gradientUnits="userSpaceOnUse" gradientTransform="translate(8.52584 5.90743) rotate(69.0442) scale(9.72297 8.44795)">
<stop offset="0.152609" stop-color="#FD5639"/>
<stop offset="0.835743" stop-color="#FE5534" stop-opacity="0.0858814"/>
<stop offset="1" stop-color="#FE5533" stop-opacity="0"/>
</radialGradient>
<linearGradient id="paint34_linear_1_82" x1="11.3455" y1="7.29587" x2="11.3455" y2="9.80339" gradientUnits="userSpaceOnUse">
<stop stop-color="#F95131"/>
<stop offset="1" stop-color="#F95131" stop-opacity="0"/>
</linearGradient>
<radialGradient id="paint35_radial_1_82" cx="0" cy="0" r="1" gradientUnits="userSpaceOnUse" gradientTransform="translate(15.8026 12.9266) rotate(143.063) scale(11.0375 7.98696)">
<stop offset="0.725303" stop-color="#F18A52" stop-opacity="0"/>
<stop offset="0.816284" stop-color="#F18A52" stop-opacity="0.230883"/>
<stop offset="1" stop-color="#F18A52"/>
</radialGradient>
<radialGradient id="paint36_radial_1_82" cx="0" cy="0" r="1" gradientUnits="userSpaceOnUse" gradientTransform="translate(16.5882 15.7251) rotate(-148.858) scale(9.47413 15.6039)">
<stop stop-color="#F39D5D" stop-opacity="0"/>
<stop offset="0.928937" stop-color="#F39D5D" stop-opacity="0"/>
<stop offset="0.938719" stop-color="#F39D5D" stop-opacity="0.0581965"/>
<stop offset="0.950197" stop-color="#F39D5D" stop-opacity="0.180239"/>
<stop offset="0.983595" stop-color="#F39D5D"/>
</radialGradient>
<radialGradient id="paint37_radial_1_82" cx="0" cy="0" r="1" gradientUnits="userSpaceOnUse" gradientTransform="translate(18.3901 16.2297) rotate(-178.108) scale(12.0072 12.1695)">
<stop stop-color="#F39D5D" stop-opacity="0"/>
<stop offset="0.939537" stop-color="#F39D5D" stop-opacity="0"/>
<stop offset="0.951154" stop-color="#F39D5D" stop-opacity="0.0581965"/>
<stop offset="0.96296" stop-color="#F39D5D" stop-opacity="0.180239"/>
<stop offset="0.980969" stop-color="#F39D5D"/>
</radialGradient>
</defs>
</svg>
