<svg width="79" height="79" viewBox="9 9 61 61" fill="none" xmlns="http://www.w3.org/2000/svg">
<g filter="url(#filter0_d_1_114)">
<path d="M55.7662 9.2554H22.6635C15.1185 9.2554 9.00208 15.3718 9.00208 22.9168V56.0195C9.00208 63.5645 15.1185 69.6809 22.6635 69.6809H55.7662C63.3112 69.6809 69.4276 63.5645 69.4276 56.0195V22.9168C69.4276 15.3718 63.3112 9.2554 55.7662 9.2554Z" fill="url(#paint0_linear_1_114)"/>
</g>
<mask id="mask0_1_114" style="mask-type:luminance" maskUnits="userSpaceOnUse" x="34" y="32" width="33" height="16">
<path d="M63.4546 32.1481H37.0122C35.4375 32.1481 34.1609 33.4247 34.1609 34.9994V44.604C34.1609 46.1787 35.4375 47.4552 37.0122 47.4552H63.4546C65.0293 47.4552 66.3059 46.1787 66.3059 44.604V34.9994C66.3059 33.4247 65.0293 32.1481 63.4546 32.1481Z" fill="white"/>
</mask>
<g mask="url(#mask0_1_114)">
<path fill-rule="evenodd" clip-rule="evenodd" d="M36.9951 32.1538C35.4203 32.1538 34.1438 33.4303 34.1438 35.0051V44.5859C34.1438 46.1607 35.4203 47.4372 36.9951 47.4372H63.4526C65.0273 47.4372 66.3039 46.1607 66.3039 44.5859V35.0051C66.3039 33.4303 65.0273 32.1538 63.4526 32.1538H36.9951ZM41.1394 43.6276V36.2191H43.842V34.9216H41.1394H39.501H36.8283V36.2191H39.501V43.6276H41.1394ZM48.2431 42.9595C48.0516 43.1974 47.8143 43.3862 47.5313 43.5259C47.2243 43.6734 46.8616 43.7471 46.443 43.7471C46.1242 43.7471 45.8332 43.7033 45.5701 43.6156C45.307 43.5239 45.0798 43.3824 44.8885 43.1911C44.7011 42.9958 44.5556 42.7466 44.452 42.4437C44.3483 42.1367 44.2965 41.7679 44.2965 41.3375V37.1579H45.875V41.3494C45.875 41.5647 45.8989 41.744 45.9468 41.8876C45.9986 42.0311 46.0683 42.1487 46.156 42.2403C46.2477 42.328 46.3534 42.3918 46.473 42.4317C46.5965 42.4676 46.7281 42.4855 46.8676 42.4855C47.2503 42.4855 47.5512 42.4097 47.7705 42.2582C47.9523 42.1316 48.0918 41.9706 48.189 41.7752V37.1579H49.7796V43.6276H48.2847L48.2431 42.9595ZM52.7274 43.6276V39.0417C52.7635 38.9724 52.8034 38.9065 52.8469 38.8441C52.9705 38.6727 53.122 38.5391 53.3013 38.4434C53.4847 38.3438 53.698 38.2939 53.9412 38.2939C54.1763 38.2939 54.3737 38.3298 54.5331 38.4016C54.6966 38.4733 54.8201 38.5949 54.9038 38.7663C54.9916 38.9377 55.0354 39.1709 55.0354 39.4659V43.6276H56.6259V39.4778C56.6259 39.0274 56.5761 38.6487 56.4764 38.3418C56.3807 38.0309 56.2412 37.7797 56.0578 37.5884C55.8785 37.3971 55.6632 37.2576 55.4121 37.1698C55.161 37.0821 54.8799 37.0383 54.569 37.0383C54.1863 37.0383 53.8395 37.112 53.5286 37.2595C53.2177 37.407 52.9486 37.6183 52.7213 37.8933C52.7094 37.9081 52.6974 37.9231 52.6857 37.9382L52.6317 37.1579H51.1488V43.6276H52.7274ZM59.6036 43.508C59.9942 43.6674 60.4347 43.7471 60.9251 43.7471C61.3476 43.7471 61.7203 43.6913 62.0432 43.5797C62.3661 43.4641 62.6411 43.3146 62.8683 43.1312C63.0995 42.9479 63.2829 42.7565 63.4184 42.5573L62.6232 41.7321C62.4238 41.9872 62.1887 42.1805 61.9176 42.3121C61.6505 42.4396 61.3516 42.5034 61.0207 42.5034C60.7576 42.5034 60.5224 42.4576 60.3151 42.3659C60.1118 42.2702 59.9365 42.1387 59.7889 41.9713C59.6454 41.7999 59.5359 41.5985 59.4601 41.3673C59.4116 41.211 59.3795 41.0456 59.3638 40.8711H63.55V40.2074C63.55 39.737 63.4902 39.3084 63.3706 38.9218C63.251 38.5312 63.0736 38.1963 62.8384 37.9173C62.6032 37.6382 62.3102 37.423 61.9595 37.2715C61.6087 37.116 61.2041 37.0383 60.7457 37.0383C60.3032 37.0383 59.8986 37.118 59.5318 37.2775C59.1651 37.4369 58.8502 37.6641 58.5871 37.9591C58.324 38.2541 58.1207 38.6069 57.9772 39.0175C57.8337 39.424 57.762 39.8765 57.762 40.3748V40.614C57.762 41.0525 57.8337 41.463 57.9772 41.8457C58.1247 42.2244 58.334 42.5573 58.605 42.8443C58.8801 43.1273 59.213 43.3485 59.6036 43.508ZM59.3907 39.7828C59.4029 39.6942 59.4181 39.6085 59.4362 39.5257C59.492 39.2706 59.5757 39.0513 59.6873 38.868C59.8029 38.6806 59.9464 38.5371 60.1178 38.4375C60.2932 38.3338 60.4985 38.282 60.7337 38.282C61.0247 38.282 61.2619 38.3458 61.4452 38.4733C61.6286 38.5969 61.7641 38.7643 61.8519 38.9756C61.9395 39.1829 61.9873 39.4121 61.9954 39.6633V39.7828H59.3907Z" fill="white"/>
</g>
<path d="M16.7038 41.3669C16.7038 41.1995 16.6779 41.05 16.6261 40.9185C16.5783 40.7829 16.4886 40.6614 16.357 40.5537C16.2295 40.4421 16.0481 40.3345 15.8129 40.2308C15.5817 40.1232 15.2828 40.0116 14.916 39.896C14.5095 39.7684 14.1307 39.6249 13.78 39.4655C13.4292 39.306 13.1202 39.1207 12.8532 38.9094C12.5901 38.6981 12.3848 38.455 12.2373 38.1799C12.0898 37.9009 12.016 37.578 12.016 37.2113C12.016 36.8525 12.0918 36.5256 12.2433 36.2306C12.3987 35.9357 12.618 35.6826 12.901 35.4712C13.184 35.256 13.5169 35.0906 13.8995 34.975C14.2862 34.8594 14.7127 34.8016 15.1791 34.8016C15.8249 34.8016 16.3829 34.9192 16.8534 35.1544C17.3277 35.3896 17.6944 35.7085 17.9535 36.1111C18.2126 36.5136 18.3422 36.9661 18.3422 37.4684H16.7038C16.7038 37.1973 16.6461 36.9582 16.5305 36.7509C16.4188 36.5436 16.2475 36.3801 16.0163 36.2606C15.789 36.1409 15.502 36.0812 15.1552 36.0812C14.8204 36.0812 14.5413 36.131 14.3181 36.2306C14.0989 36.3303 13.9334 36.4659 13.8218 36.6373C13.7142 36.8086 13.6604 37 13.6604 37.2113C13.6604 37.3707 13.6982 37.5142 13.774 37.6418C13.8497 37.7654 13.9633 37.883 14.1148 37.9945C14.2663 38.1022 14.4536 38.2039 14.6769 38.2995C14.904 38.3912 15.1672 38.4828 15.4661 38.5745C15.9445 38.7181 16.3631 38.8775 16.7218 39.0529C17.0846 39.2283 17.3855 39.4276 17.6247 39.6508C17.8678 39.8741 18.0492 40.1252 18.1688 40.4043C18.2924 40.6832 18.3541 41.0002 18.3541 41.355C18.3541 41.7297 18.2804 42.0645 18.1329 42.3595C17.9855 42.6545 17.7741 42.9056 17.4991 43.1129C17.2241 43.3202 16.8932 43.4776 16.5066 43.5853C16.1239 43.6929 15.6954 43.7467 15.221 43.7467C14.7984 43.7467 14.3799 43.6909 13.9653 43.5792C13.5547 43.4636 13.182 43.2923 12.8472 43.065C12.5123 42.8338 12.2453 42.5429 12.0459 42.1921C11.8466 41.8373 11.747 41.4228 11.747 40.9484H13.3973C13.3973 41.2234 13.4411 41.4586 13.5288 41.6539C13.6205 41.8453 13.7481 42.0027 13.9115 42.1263C14.0789 42.2459 14.2742 42.3336 14.4975 42.3894C14.7207 42.4452 14.9619 42.4731 15.221 42.4731C15.5558 42.4731 15.8308 42.4273 16.0461 42.3356C16.2654 42.2399 16.4288 42.1084 16.5364 41.9409C16.6481 41.7735 16.7038 41.5822 16.7038 41.3669Z" fill="white"/>
<path d="M23.3529 42.0899V37.1569H24.9434V43.6266H23.4485L23.3529 42.0899ZM23.5562 40.7505L24.0465 40.7386C24.0465 41.173 23.9987 41.5737 23.903 41.9404C23.8073 42.3071 23.6578 42.626 23.4545 42.8971C23.2552 43.1642 23.0021 43.3734 22.6952 43.5249C22.3882 43.6724 22.0255 43.7462 21.6069 43.7462C21.288 43.7462 20.997 43.7024 20.7339 43.6146C20.4709 43.523 20.2436 43.3815 20.0523 43.1901C19.865 42.9948 19.7194 42.7456 19.6158 42.4427C19.5121 42.1357 19.4603 41.767 19.4603 41.3365V37.1569H21.0389V41.3485C21.0389 41.5637 21.0628 41.7431 21.1106 41.8866C21.1625 42.0301 21.2322 42.1477 21.3199 42.2394C21.4116 42.3271 21.5172 42.3909 21.6368 42.4307C21.7604 42.4666 21.8919 42.4845 22.0314 42.4845C22.4142 42.4845 22.7151 42.4088 22.9343 42.2573C23.1576 42.1018 23.317 41.8945 23.4127 41.6355C23.5084 41.3724 23.5562 41.0774 23.5562 40.7505Z" fill="white"/>
<path d="M26.3366 34.4425H27.9211V42.1977L27.7657 43.6268H26.3366V34.4425ZM32.0828 40.3262V40.4517C32.0828 40.9341 32.0289 41.3766 31.9213 41.7791C31.8177 42.1817 31.6603 42.5305 31.4489 42.8255C31.2377 43.1165 30.9746 43.3438 30.6597 43.5072C30.3488 43.6667 29.984 43.7464 29.5655 43.7464C29.1669 43.7464 28.8201 43.6686 28.5251 43.5132C28.2341 43.3577 27.9889 43.1385 27.7896 42.8555C27.5903 42.5684 27.4308 42.2316 27.3113 41.8449C27.1917 41.4543 27.102 41.0278 27.0422 40.5654V40.2245C27.102 39.7581 27.1917 39.3316 27.3113 38.945C27.4308 38.5583 27.5903 38.2215 27.7896 37.9344C27.9889 37.6474 28.2341 37.4262 28.5251 37.2707C28.8161 37.1153 29.1588 37.0375 29.5535 37.0375C29.9761 37.0375 30.3448 37.1192 30.6597 37.2827C30.9786 37.4421 31.2417 37.6694 31.4489 37.9643C31.6603 38.2553 31.8177 38.6021 31.9213 39.0047C32.0289 39.4034 32.0828 39.8439 32.0828 40.3262ZM30.4982 40.4517V40.3262C30.4982 40.0511 30.4763 39.792 30.4325 39.5489C30.3886 39.3017 30.3169 39.0845 30.2172 38.8971C30.1176 38.7098 29.982 38.5623 29.8106 38.4547C29.6392 38.347 29.424 38.2932 29.1649 38.2932C28.9177 38.2932 28.7064 38.335 28.531 38.4188C28.3596 38.5025 28.2161 38.6181 28.1005 38.7656C27.9889 38.913 27.9012 39.0865 27.8375 39.2857C27.7777 39.4851 27.7378 39.7003 27.7178 39.9315V40.8643C27.7458 41.1713 27.8115 41.4483 27.9152 41.6954C28.0188 41.9386 28.1723 42.1319 28.3756 42.2755C28.5829 42.419 28.8499 42.4907 29.1768 42.4907C29.4319 42.4907 29.6452 42.4409 29.8166 42.3412C29.988 42.2376 30.1235 42.0941 30.2232 41.9107C30.3229 41.7234 30.3926 41.5061 30.4325 41.259C30.4763 41.0118 30.4982 40.7427 30.4982 40.4517Z" fill="white"/>
<defs>
<filter id="filter0_d_1_114" x="0.369856" y="0.623182" width="77.69" height="77.69" filterUnits="userSpaceOnUse" color-interpolation-filters="sRGB">
<feFlood flood-opacity="0" result="BackgroundImageFix"/>
<feColorMatrix in="SourceAlpha" type="matrix" values="0 0 0 0 0 0 0 0 0 0 0 0 0 0 0 0 0 0 127 0" result="hardAlpha"/>
<feOffset/>
<feGaussianBlur stdDeviation="4.31611"/>
<feComposite in2="hardAlpha" operator="out"/>
<feColorMatrix type="matrix" values="0 0 0 0 0.174929 0 0 0 0 0.174929 0 0 0 0 0.174929 0 0 0 0.2 0"/>
<feBlend mode="normal" in2="BackgroundImageFix" result="effect1_dropShadow_1_114"/>
<feBlend mode="normal" in="SourceGraphic" in2="effect1_dropShadow_1_114" result="shape"/>
</filter>
<linearGradient id="paint0_linear_1_114" x1="39.2148" y1="9.2554" x2="39.2148" y2="69.6809" gradientUnits="userSpaceOnUse">
<stop offset="0.0860277" stop-color="#552AFF"/>
<stop offset="0.467484" stop-color="#B96ECD"/>
<stop offset="0.817588" stop-color="#F2AD9F"/>
</linearGradient>
</defs>
</svg>
