<svg width="20" height="21" viewBox="0 0 20 21" fill="none" xmlns="http://www.w3.org/2000/svg">
<path d="M10.0013 2.1665C5.40963 2.1665 1.66797 5.90817 1.66797 10.4998C1.66797 15.0915 5.40963 18.8332 10.0013 18.8332C14.593 18.8332 18.3346 15.0915 18.3346 10.4998C18.3346 5.90817 14.593 2.1665 10.0013 2.1665ZM13.9846 8.58317L9.25963 13.3082C9.14297 13.4248 8.98463 13.4915 8.81797 13.4915C8.6513 13.4915 8.49297 13.4248 8.3763 13.3082L6.01797 10.9498C5.7763 10.7082 5.7763 10.3082 6.01797 10.0665C6.25963 9.82484 6.65963 9.82484 6.9013 10.0665L8.81797 11.9832L13.1013 7.69984C13.343 7.45817 13.743 7.45817 13.9846 7.69984C14.2263 7.9415 14.2263 8.33317 13.9846 8.58317Z" fill="#FB9550"/>
</svg>
