<svg width="61" height="62" viewBox="0 0 61 62" fill="none" xmlns="http://www.w3.org/2000/svg">
<g clip-path="url(#clip0_1_88)">
<rect x="0.00598145" y="0.687012" width="60.4255" height="60.4255" rx="13.5788" fill="#262222"/>
<rect x="0.00622559" y="0.688477" width="60.4255" height="60.4255" fill="url(#paint0_linear_1_88)"/>
<g filter="url(#filter0_f_1_88)">
<rect x="21.1311" y="21.283" width="27.8524" height="28.4425" rx="5.90093" fill="#E6805A"/>
</g>
<path d="M43.8852 18.1518C44.3748 17.7216 45.1205 17.7697 45.5508 18.2593L86.8867 65.3006C87.3169 65.7902 87.2688 66.5359 86.7792 66.9662L58.8079 91.545C58.3183 91.9752 57.5726 91.9271 57.1423 91.4374L15.8064 44.3962C15.3762 43.9066 15.4243 43.1609 15.9139 42.7306L43.8852 18.1518Z" fill="url(#paint1_linear_1_88)"/>
<rect x="14.7014" y="15.7947" width="31.0389" height="31.0389" rx="5.90093" fill="#E6805A"/>
<g clip-path="url(#clip1_1_88)">
<rect x="14.7014" y="14.2014" width="31.0389" height="31.0389" rx="5.90093" fill="#FBE7D5"/>
<path d="M42.1647 53.585L28.3669 39.0386L37.4493 22.1092L54.0308 41.4517L42.1647 53.585Z" fill="url(#paint2_linear_1_88)"/>
<path d="M29.9544 36.0639L24.201 27.9206L25.7647 22.1086L33.1825 32.2873L29.9544 36.0639Z" fill="url(#paint3_linear_1_88)"/>
</g>
<mask id="path-9-outside-1_1_88" maskUnits="userSpaceOnUse" x="21.7834" y="21.3534" width="17" height="19" fill="black">
<rect fill="white" x="21.7834" y="21.3534" width="17" height="19"/>
<path d="M30.253 37.5906H30.3127L35.2426 23.6076C35.402 23.1495 35.7107 22.9204 36.1688 22.9204C36.5473 22.9204 36.8361 23.0997 37.0353 23.4582C37.0951 23.5578 37.125 23.6574 37.125 23.757C37.125 23.8566 37.105 23.9662 37.0652 24.0857L31.8963 38.1284C31.6174 38.9451 31.0497 39.3534 30.1932 39.3534C29.8347 39.3534 29.516 39.2737 29.2371 39.1144C28.9583 38.9351 28.7292 38.6064 28.5499 38.1284L23.3511 24.1753C23.3113 24.0956 23.2914 23.996 23.2914 23.8765C23.2914 23.7371 23.3213 23.6076 23.381 23.4881C23.4408 23.3686 23.5204 23.259 23.62 23.1594C23.7993 23.0001 24.0184 22.9204 24.2774 22.9204C24.7753 22.9204 25.104 23.1395 25.2633 23.5777L30.253 37.5906Z"/>
</mask>
<path d="M30.253 37.5906H30.3127L35.2426 23.6076C35.402 23.1495 35.7107 22.9204 36.1688 22.9204C36.5473 22.9204 36.8361 23.0997 37.0353 23.4582C37.0951 23.5578 37.125 23.6574 37.125 23.757C37.125 23.8566 37.105 23.9662 37.0652 24.0857L31.8963 38.1284C31.6174 38.9451 31.0497 39.3534 30.1932 39.3534C29.8347 39.3534 29.516 39.2737 29.2371 39.1144C28.9583 38.9351 28.7292 38.6064 28.5499 38.1284L23.3511 24.1753C23.3113 24.0956 23.2914 23.996 23.2914 23.8765C23.2914 23.7371 23.3213 23.6076 23.381 23.4881C23.4408 23.3686 23.5204 23.259 23.62 23.1594C23.7993 23.0001 24.0184 22.9204 24.2774 22.9204C24.7753 22.9204 25.104 23.1395 25.2633 23.5777L30.253 37.5906Z" fill="url(#paint4_linear_1_88)"/>
<path d="M30.253 37.5906L29.4191 37.8875L29.6286 38.4757H30.253V37.5906ZM30.3127 37.5906V38.4757H30.9392L31.1475 37.8849L30.3127 37.5906ZM35.2426 23.6076L36.0774 23.9019L36.0786 23.8984L35.2426 23.6076ZM37.0353 23.4582L36.2616 23.8881L36.2687 23.901L36.2763 23.9136L37.0353 23.4582ZM37.0652 24.0857L37.8959 24.3914L37.9006 24.3786L37.9049 24.3656L37.0652 24.0857ZM31.8963 38.1284L31.0656 37.8226L31.062 37.8325L31.0586 37.8424L31.8963 38.1284ZM29.2371 39.1144L28.7585 39.8589L28.7779 39.8714L28.798 39.8829L29.2371 39.1144ZM28.5499 38.1284L27.7205 38.4374L27.7211 38.4392L28.5499 38.1284ZM23.3511 24.1753L24.1806 23.8663L24.164 23.8218L24.1428 23.7795L23.3511 24.1753ZM23.381 23.4881L24.1727 23.884H24.1727L23.381 23.4881ZM23.62 23.1594L23.032 22.4979L23.0125 22.5152L22.9941 22.5336L23.62 23.1594ZM25.2633 23.5777L26.0972 23.2808L26.0952 23.2752L25.2633 23.5777ZM30.253 38.4757H30.3127V36.7054H30.253V38.4757ZM31.1475 37.8849L36.0774 23.9019L34.4079 23.3133L29.478 37.2963L31.1475 37.8849ZM36.0786 23.8984C36.1152 23.7932 36.1427 23.787 36.1211 23.8031C36.1122 23.8096 36.1053 23.8119 36.1066 23.8115C36.1094 23.8107 36.1279 23.8056 36.1688 23.8056V22.0353C35.7873 22.0353 35.4008 22.1332 35.0663 22.3814C34.7359 22.6265 34.5294 22.9639 34.4066 23.3168L36.0786 23.8984ZM36.1688 23.8056C36.1932 23.8056 36.2045 23.8084 36.2062 23.8089C36.2074 23.8092 36.2051 23.8085 36.2025 23.8069C36.1948 23.8022 36.2201 23.8135 36.2616 23.8881L37.8091 23.0284C37.4698 22.4177 36.9005 22.0353 36.1688 22.0353V23.8056ZM36.2763 23.9136C36.2674 23.8988 36.2398 23.8429 36.2398 23.757H38.0101C38.0101 23.472 37.9227 23.2168 37.7943 23.0028L36.2763 23.9136ZM36.2398 23.757C36.2398 23.7479 36.2407 23.747 36.2391 23.7555C36.2376 23.7642 36.2338 23.7807 36.2255 23.8058L37.9049 24.3656C37.9672 24.1786 38.0101 23.9731 38.0101 23.757H36.2398ZM36.2345 23.7799L31.0656 37.8226L32.7269 38.4341L37.8959 24.3914L36.2345 23.7799ZM31.0586 37.8424C30.9645 38.118 30.8472 38.2547 30.7445 38.3286C30.6424 38.4021 30.4784 38.4683 30.1932 38.4683V40.2385C30.7646 40.2385 31.3127 40.1006 31.7782 39.7657C32.2432 39.4313 32.5492 38.9555 32.7339 38.4144L31.0586 37.8424ZM30.1932 38.4683C29.9704 38.4683 29.8063 38.4202 29.6763 38.3459L28.798 39.8829C29.2256 40.1273 29.699 40.2385 30.1932 40.2385V38.4683ZM29.7158 38.3698C29.6631 38.3359 29.525 38.2077 29.3787 37.8176L27.7211 38.4392C27.9334 39.0051 28.2534 39.5343 28.7585 39.8589L29.7158 38.3698ZM29.3794 37.8193L24.1806 23.8663L22.5217 24.4843L27.7205 38.4374L29.3794 37.8193ZM24.1428 23.7795C24.1817 23.8573 24.1765 23.9034 24.1765 23.8765H22.4062C22.4062 24.0887 22.4408 24.334 22.5594 24.5711L24.1428 23.7795ZM24.1765 23.8765C24.1765 23.8705 24.1771 23.8702 24.1763 23.8739C24.1754 23.8777 24.1739 23.8815 24.1727 23.884L22.5893 23.0923C22.4654 23.3401 22.4062 23.6058 22.4062 23.8765H24.1765ZM24.1727 23.884C24.1877 23.854 24.2099 23.8213 24.2459 23.7853L22.9941 22.5336C22.8309 22.6968 22.6939 22.8831 22.5893 23.0923L24.1727 23.884ZM24.2081 23.821C24.2131 23.8165 24.2162 23.8146 24.2174 23.8139C24.2185 23.8132 24.2195 23.8127 24.2213 23.812C24.2238 23.8111 24.2397 23.8056 24.2774 23.8056V22.0353C23.8203 22.0353 23.3867 22.1825 23.032 22.4979L24.2081 23.821ZM24.2774 23.8056C24.3971 23.8056 24.4211 23.8311 24.4063 23.8212C24.4007 23.8175 24.3988 23.8144 24.4014 23.8178C24.4048 23.8224 24.4169 23.8402 24.4315 23.8802L26.0952 23.2752C25.963 22.9118 25.7365 22.5804 25.3883 22.3483C25.0448 22.1193 24.6556 22.0353 24.2774 22.0353V23.8056ZM24.4295 23.8747L29.4191 37.8875L31.0868 37.2937L26.0972 23.2808L24.4295 23.8747Z" fill="#0F1C31" mask="url(#path-9-outside-1_1_88)"/>
</g>
<defs>
<filter id="filter0_f_1_88" x="15.2302" y="15.382" width="39.6543" height="40.2444" filterUnits="userSpaceOnUse" color-interpolation-filters="sRGB">
<feFlood flood-opacity="0" result="BackgroundImageFix"/>
<feBlend mode="normal" in="SourceGraphic" in2="BackgroundImageFix" result="shape"/>
<feGaussianBlur stdDeviation="2.95047" result="effect1_foregroundBlur_1_88"/>
</filter>
<linearGradient id="paint0_linear_1_88" x1="0.00622559" y1="0.688477" x2="60.4318" y2="61.114" gradientUnits="userSpaceOnUse">
<stop stop-color="#FBE4D7"/>
<stop offset="1" stop-color="#F0AA86"/>
</linearGradient>
<linearGradient id="paint1_linear_1_88" x1="92.0915" y1="30.9899" x2="67.5638" y2="5.04365" gradientUnits="userSpaceOnUse">
<stop stop-color="white" stop-opacity="0"/>
<stop offset="0.619519" stop-color="#F4BFA2" stop-opacity="0"/>
<stop offset="1" stop-color="#F09D79"/>
</linearGradient>
<linearGradient id="paint2_linear_1_88" x1="23.4183" y1="25.7683" x2="56.351" y2="53.9745" gradientUnits="userSpaceOnUse">
<stop stop-color="#F19E7A"/>
<stop offset="0.538612" stop-color="#FBE7D5"/>
<stop offset="1" stop-color="#FBE7D5"/>
</linearGradient>
<linearGradient id="paint3_linear_1_88" x1="11.7338" y1="25.7677" x2="44.6665" y2="53.9738" gradientUnits="userSpaceOnUse">
<stop stop-color="#F19E7A"/>
<stop offset="0.538612" stop-color="#FBE7D5"/>
<stop offset="1" stop-color="#FBE7D5"/>
</linearGradient>
<linearGradient id="paint4_linear_1_88" x1="30.2834" y1="51.5708" x2="30.2834" y2="20.1979" gradientUnits="userSpaceOnUse">
<stop stop-color="#0E1B2F"/>
<stop offset="1" stop-color="#192B42"/>
</linearGradient>
<clipPath id="clip0_1_88">
<rect x="0.00598145" y="0.687012" width="60.4255" height="60.4255" rx="13.5788" fill="white"/>
</clipPath>
<clipPath id="clip1_1_88">
<rect x="14.7014" y="14.2014" width="31.0389" height="31.0389" rx="5.90093" fill="white"/>
</clipPath>
</defs>
</svg>
